<svg xmlns="http://www.w3.org/2000/svg" enable-background="new 0 0 64 64" viewBox="0 0 64 64"><path fill="#62af6a" d="M64,32c0,7.4-2.5,14.3-6.8,19.8c-1.3,1.6-2.7,3.1-4.2,4.4c-1.8,1.6-3.7,2.9-5.8,4c0,0,0,0,0,0
		c-1.2,0.6-2.4,1.2-3.6,1.7h0C40,63.2,36.1,64,32,64c-5.1,0-9.9-1.2-14.1-3.3c-2.1-1.1-4.1-2.3-5.9-3.8c-2.1-1.7-3.9-3.6-5.5-5.7
		C2.4,45.9,0,39.2,0,32C0,14.3,14.3,0,32,0S64,14.3,64,32z"/><circle cx="42.6" cy="34.3" r="5.3" fill="#324a5e"/><path fill="#e9b594" d="M46.2,30.5c0,1.7-1.4,3.1-3.1,3.1h-2.9v-6.1h2.9c0.8,0,1.6,0.3,2.2,0.9C45.9,28.9,46.2,29.7,46.2,30.5z"/><path fill="#324a5e" d="M25.5,30c0,2.5-2,4.5-4.5,4.5c-2.5,0-4.5-2-4.5-4.5c0-2.5,2-4.5,4.5-4.5C23.5,25.5,25.5,27.5,25.5,30z"/><path fill="#324a5e" d="M24.6,36.4c0,2.5-2,4.5-4.5,4.5c-2.5,0-4.5-2-4.5-4.5s2-4.5,4.5-4.5C22.5,31.9,24.6,33.9,24.6,36.4z"/><path fill="#6593c4" d="M57.2,51.8c-1.3,1.6-2.7,3.1-4.2,4.4c-1.8,1.6-3.7,2.9-5.8,4c0,0,0,0,0,0c-1.2,0.6-2.4,1.2-3.6,1.7h0
				C40,63.2,36.1,64,32,64c-5.1,0-9.9-1.2-14.1-3.3c-2.1-1.1-4.1-2.3-5.9-3.8c-2.1-1.7-3.9-3.6-5.5-5.7c0.3-0.6,0.6-1.2,1-1.7
				c1.3-1.7,3.2-2.8,5.4-3.1l2.8-0.4l8.9-1.2l7.1-1l7,1l1.8,0.2l6.8,0.9l3.2,0.4c2.6,0.3,4.7,1.8,6,3.9C56.8,50.8,57,51.3,57.2,51.8
				z"/><path fill="#f5f2f1" d="M47.2 60.2c-1.2.6-2.4 1.2-3.6 1.7.7-1 1.8-1.7 3.2-1.7C46.9 60.2 47 60.2 47.2 60.2zM57.2 51.8c-1.3 1.6-2.7 3.1-4.2 4.4-.4-.6-.6-1.3-.6-2 0-2.1 1.7-3.8 3.8-3.8h.3C56.8 50.8 57 51.3 57.2 51.8zM47.5 47.1c0 2.1-1.7 3.8-3.8 3.8-2.1 0-3.8-1.7-3.8-3.8 0-.8.2-1.5.6-2.1l6.8.9C47.5 46.3 47.5 46.7 47.5 47.1z"/><circle cx="39.1" cy="55.1" r="2.3" fill="#f5f2f1"/><circle cx="30.8" cy="58.1" r="3.5" fill="#f5f2f1"/><path fill="#f5f2f1" d="M25.3 53.3c0 1.8-1.4 3.2-3.2 3.2-1.8 0-3.2-1.4-3.2-3.2 0-1.8 1.4-3.2 3.2-3.2C23.9 50.1 25.3 51.5 25.3 53.3zM18.3 59.1c0 .6-.1 1.1-.4 1.6-2.1-1.1-4.1-2.3-5.9-3.8.6-.8 1.6-1.3 2.8-1.3C16.7 55.6 18.3 57.2 18.3 59.1zM16.8 49.1c0 2.6-2.1 4.7-4.7 4.7-2.5 0-4.5-1.9-4.7-4.3 1.3-1.7 3.2-2.8 5.4-3.1l2.8-.4C16.4 46.9 16.8 47.9 16.8 49.1z"/><path fill="#edc3a6" d="M38.7,37.1v8.8c0,3.9-3.2,7.1-7.1,7.1c-3.9,0-7.1-3.2-7.1-7.1v-8.8H38.7z"/><path fill="#fcd5bb" d="M41.5,20.2V33c0,5.4-4.3,9.7-9.7,9.7c-5.4,0-9.7-4.3-9.7-9.7V20.2H41.5z"/><circle cx="42.6" cy="26.2" r="5.3" fill="#324a5e"/><path fill="#fe667c" d="M29.1,11.7L29.1,11.7c6.8-1.7,13.7,2.5,15.4,9.3l0.2,0.7l-24.7,6.1l-0.2-0.7C18.1,20.3,22.2,13.4,29.1,11.7
				z"/><path fill="#d9475e" d="M7.4,31.9c-1.1,0-2-0.7-2.2-1.8c-0.3-1.2,0.5-2.5,1.7-2.8l47.3-10.7c1.2-0.3,2.5,0.5,2.8,1.7
					c0.3,1.2-0.5,2.5-1.7,2.8L7.9,31.9C7.8,31.9,7.6,31.9,7.4,31.9z"/></svg>