<?xml version="1.0" encoding="UTF-8"?>
<svg xmlns="http://www.w3.org/2000/svg" xmlns:xlink="http://www.w3.org/1999/xlink" width="375pt" height="374.999991pt" viewBox="0 0 375 374.999991" version="1.2">
<defs>
<clipPath id="clip1">
  <path d="M 3 2 L 374.457031 2 L 374.457031 375 L 3 375 Z M 3 2 "/>
</clipPath>
<clipPath id="clip2">
  <path d="M 57.417969 291.515625 C 53.246094 289.617188 51.976562 283.5625 48.132812 278.972656 C 47.292969 277.347656 48.996094 279.492188 51.191406 282.585938 C 53.300781 285.679688 56.386719 289.371094 57.417969 291.515625 Z M 38.140625 292.601562 L 36.542969 293.769531 C 38.464844 296.78125 40.710938 299.390625 41.929688 298.683594 C 40.710938 297.109375 39.738281 296.402344 38.734375 295.722656 C 39.304688 295.101562 39.683594 294.476562 38.140625 292.601562 Z M 135.664062 340.054688 C 139.210938 341.277344 142.566406 342.253906 144.785156 342.117188 C 131.628906 338.863281 116.464844 331.503906 106.070312 326.808594 C 109.210938 328.546875 112.324219 330.335938 115.546875 331.9375 L 125.429688 336.253906 C 128.378906 337.394531 132.117188 338.863281 135.664062 340.054688 Z M 324.398438 308.917969 C 321.933594 312.285156 319.171875 315.109375 316.652344 317.929688 C 314.082031 320.699219 311.644531 323.441406 309.15625 325.859375 C 304.039062 330.582031 299.433594 335.140625 294.804688 339.105469 C 294.695312 339.1875 294.589844 339.296875 294.480469 339.378906 C 292.179688 340.246094 289.984375 340.707031 287.957031 340.597656 C 284.707031 343.203125 281.320312 345.214844 278.15625 347.277344 C 274.933594 349.285156 271.898438 351.292969 268.867188 353.003906 C 268.785156 353.058594 268.707031 353.085938 268.652344 353.113281 C 268.328125 353.085938 268.027344 353.03125 267.648438 353.058594 C 267.59375 353.277344 267.542969 353.519531 267.488281 353.738281 C 261.855469 356.722656 256.65625 359.628906 251.59375 362.070312 C 246.070312 364.625 240.925781 367.394531 235.808594 369.945312 C 230.667969 372.414062 225.65625 375.15625 220.539062 378.226562 C 225.765625 376.296875 231.910156 374.042969 238.542969 371.628906 C 244.960938 368.804688 251.945312 366.199219 258.714844 363.050781 C 260.664062 362.097656 262.640625 361.203125 264.617188 360.28125 C 264.617188 360.308594 264.589844 360.308594 264.589844 360.335938 C 266.457031 359.765625 267.566406 359.167969 268.488281 358.515625 C 271.898438 356.941406 275.257812 355.367188 278.453125 353.683594 C 275.285156 356.5625 272.144531 359.546875 269.03125 362.75 C 273.578125 359.546875 278.941406 355.773438 284.707031 351.703125 C 285.734375 350.859375 286.816406 350.046875 287.902344 349.203125 C 287.902344 349.203125 287.929688 349.203125 287.929688 349.203125 C 290.90625 347.792969 293.722656 346.355469 296.457031 345.214844 C 297 342.066406 292.449219 347.332031 291.71875 346.273438 C 293.722656 344.753906 295.726562 343.230469 297.703125 341.628906 C 301.761719 338.644531 305.660156 335.738281 309.15625 332.617188 C 311.808594 330.363281 314.351562 328.136719 316.761719 325.9375 C 317.492188 325.234375 318.171875 324.5 318.847656 323.765625 C 321.445312 321.488281 324.046875 319.289062 326.5625 317.253906 C 329.082031 315.109375 331.4375 312.988281 333.792969 311.171875 C 333.496094 307.859375 330.191406 314.808594 329.378906 313.316406 C 334.253906 307.125 339.015625 301.5625 342.835938 295.722656 C 344.8125 292.875 346.707031 290.050781 348.464844 287.28125 C 350.144531 284.457031 351.578125 281.554688 352.960938 278.730469 C 347.84375 285.191406 343.078125 292.03125 338.558594 297.894531 C 333.953125 303.707031 329.082031 307.96875 324.398438 308.917969 Z M 366.984375 214.445312 C 366.226562 218.027344 365.550781 221.367188 364.875 224.542969 C 364.277344 227.746094 363.710938 230.761719 363.167969 233.691406 C 362.519531 236.597656 361.921875 239.476562 361.433594 242.351562 C 362.355469 239.230469 363.332031 235.863281 364.359375 232.445312 C 365.171875 228.96875 365.984375 225.386719 366.796875 221.910156 C 368.5 214.933594 368.988281 208.066406 368.800781 202.773438 C 368.148438 206.980469 367.554688 210.835938 366.984375 214.445312 Z M 124.210938 362.75 C 127.8125 363.890625 132.035156 365.738281 136.257812 367.257812 C 140.480469 368.75 144.785156 369.539062 148.171875 369.375 C 144.273438 368.316406 139.371094 367.011719 135.039062 365.328125 C 130.652344 363.726562 126.671875 362.507812 124.210938 362.75 Z M 368.5 141.472656 C 369.613281 145.003906 370.722656 148.449219 371.777344 151.761719 C 370.855469 147.746094 369.882812 143.753906 368.828125 139.84375 C 367.554688 135.988281 366.226562 132.214844 364.847656 128.578125 C 364.144531 126.761719 363.4375 124.996094 362.734375 123.230469 C 361.976562 121.519531 361.109375 119.863281 360.269531 118.261719 C 358.59375 115.058594 356.859375 112.046875 355.125 109.304688 C 358.566406 116.417969 362.03125 123.558594 364.546875 130.832031 C 365.875 134.441406 367.335938 137.972656 368.5 141.472656 Z M 347.058594 96.109375 C 348.765625 98.933594 350.390625 101.296875 351.984375 102.734375 C 348.65625 97.222656 345.300781 90.492188 341.5625 87.015625 C 342.539062 88.5625 343.539062 90.109375 344.488281 91.632812 C 345.378906 93.179688 346.246094 94.699219 347.058594 96.109375 Z M 129.027344 292.875 C 128 292.03125 126.160156 290.785156 123.964844 289.453125 C 121.746094 288.125 119.390625 286.359375 116.84375 285 C 116.140625 285.382812 114.976562 285.652344 116.464844 285.542969 C 118.984375 286.574219 121.257812 289.289062 122.125 290.132812 C 120.121094 288.640625 118.011719 286.847656 117.332031 288.585938 C 117.929688 288.613281 118.441406 288.800781 118.957031 289.046875 C 118.796875 289.128906 118.660156 289.183594 118.496094 289.34375 C 118.390625 289.914062 119.714844 291.21875 121.285156 292.195312 C 122.882812 293.089844 124.644531 293.742188 125.078125 293.390625 C 124.398438 293.117188 123.75 292.519531 123.101562 291.84375 C 123.585938 292.03125 124.046875 292.003906 124.480469 291.597656 C 123.910156 291.40625 123.234375 290.945312 122.558594 290.457031 C 130.003906 294.636719 131.085938 294.558594 129.027344 292.875 Z M 132.167969 310.980469 C 135.175781 312.339844 138.449219 315.109375 140.507812 312.964844 C 137.042969 311.714844 134.199219 310.546875 132.167969 310.980469 Z M 4.515625 212.925781 C 5.054688 214.851562 5.625 216.671875 6.136719 218.21875 C 5.570312 216.265625 5.109375 214.226562 4.894531 212.191406 C 4.730469 210.15625 4.675781 208.121094 4.621094 206.21875 C 4.515625 202.390625 4.433594 199.054688 3.566406 196.855469 C 2.78125 199.132812 2.890625 202.933594 3.429688 206.953125 C 3.703125 208.933594 4.082031 210.972656 4.515625 212.925781 Z M 116.195312 322.191406 C 115.789062 322.4375 118.0625 324.230469 124.507812 325.722656 C 122.097656 324.308594 120.09375 323.441406 118.660156 322.871094 C 117.277344 322.273438 116.386719 322.058594 116.195312 322.191406 Z M 76.398438 292.957031 C 79.863281 295.371094 83.625 298.847656 86.792969 299.253906 C 84.546875 297.433594 81.839844 294.503906 79.890625 292.414062 C 77.914062 290.320312 76.640625 289.046875 77.507812 290.296875 C 80.972656 293.578125 76.667969 290.757812 76.398438 292.957031 Z M 106.503906 316.382812 C 103.769531 312.5 98.40625 311.878906 93.722656 307.613281 C 93.96875 311.769531 104.527344 314.210938 106.503906 316.382812 Z M 31.941406 99.964844 C 31.617188 99.042969 31.75 97.222656 32.726562 97.441406 C 34.429688 94.945312 39.089844 86.773438 40.386719 85.632812 C 42.28125 82.644531 44.152344 79.714844 46.046875 76.890625 C 49.703125 71.839844 52.921875 66.628906 56.144531 61.714844 C 55.578125 63.804688 55.304688 65.816406 53.410156 68.664062 C 55.683594 66.382812 57.878906 64.210938 60.070312 62.09375 C 61.585938 60.464844 63.101562 58.863281 64.644531 57.316406 C 69.519531 52.8125 74.257812 48.386719 78.96875 44.257812 C 83.816406 40.324219 88.253906 36.117188 92.640625 32.234375 C 91.558594 34.105469 90.773438 35.980469 88.199219 38.234375 C 88.5 38.070312 88.769531 37.90625 89.066406 37.746094 C 100.519531 29.4375 112.378906 23.191406 125.507812 18.523438 C 124.832031 17.222656 121.746094 18.46875 118.550781 19.910156 C 116.574219 19.800781 119.632812 18.632812 123.261719 17.300781 C 126.835938 15.917969 131.167969 14.886719 131.332031 13.828125 C 131.03125 15.429688 133.46875 15.484375 137.476562 14.695312 C 139.34375 14.261719 141.617188 13.773438 144.109375 13.257812 C 152.855469 10.839844 161.652344 9.238281 170.804688 8.507812 C 170.589844 7.53125 168.910156 7.421875 166.769531 7.636719 C 166.039062 7.746094 165.335938 7.828125 164.578125 7.9375 C 164.308594 7.992188 164.035156 8.019531 163.738281 8.074219 C 162.601562 7.691406 163.359375 7.421875 164.984375 7.203125 C 166.636719 5.902344 173.105469 6.550781 178.441406 4.761719 C 177.113281 3.621094 173.429688 3.917969 171.238281 3.320312 C 179.035156 0.199219 181.742188 6.308594 191.109375 5.4375 C 190.21875 4.542969 188.132812 4.164062 185.480469 4.082031 C 186.398438 3.402344 188.753906 3.402344 188.320312 2.101562 C 198.90625 2.535156 209.546875 3.945312 220.078125 6.28125 C 219.648438 6.089844 219.242188 5.902344 218.890625 5.710938 C 222.707031 5.25 224.980469 6.417969 227.226562 7.9375 C 229.527344 8.535156 231.804688 9.238281 234.078125 9.917969 C 234.945312 9.863281 235.757812 9.78125 235.730469 8.941406 C 260.554688 16.707031 284.246094 30.117188 304.417969 48.140625 C 309.585938 52.785156 314.515625 57.726562 319.199219 62.9375 C 322.449219 66.332031 325.617188 69.804688 328.675781 73.414062 C 329.214844 74.367188 329.867188 75.398438 330.488281 76.402344 C 333.546875 78.300781 337.066406 85.769531 340.128906 89.675781 C 339.585938 89.378906 338.992188 88.808594 338.421875 88.101562 C 343.808594 96.410156 348.65625 105.125 352.90625 114.246094 C 353.175781 115.304688 353.554688 116.472656 353.882812 117.585938 C 356.15625 120.027344 357.589844 127.113281 359.324219 131.78125 C 358.539062 128.605469 358.320312 125.59375 359.269531 124.832031 C 362.519531 128.414062 362.140625 135.828125 363.222656 140.199219 C 361.894531 139.273438 360.433594 135.964844 359.511719 132.625 C 357.507812 130.34375 356.210938 123.476562 354.207031 118.804688 C 354.339844 119.214844 354.421875 119.566406 354.558594 119.972656 C 355.101562 122.007812 355.695312 124.179688 356.289062 126.433594 C 357.429688 130.941406 359.160156 135.664062 360.191406 140.847656 C 361.273438 146.007812 362.707031 151.328125 363.464844 156.867188 C 364.167969 162.40625 365.0625 167.996094 365.28125 173.5625 C 365.550781 177.988281 365.632812 182.410156 365.550781 186.835938 C 365.550781 186.863281 365.550781 186.917969 365.550781 186.945312 C 365.550781 187.109375 365.550781 187.269531 365.550781 187.40625 C 365.550781 187.976562 365.550781 188.574219 365.523438 189.144531 C 365.441406 208.257812 362.84375 227.476562 356.804688 245.910156 C 344.59375 284.105469 319.875 319.070312 284.597656 342.011719 C 284.652344 341.359375 285.003906 340.679688 285.734375 339.921875 C 277.910156 345.347656 269.625 350.183594 260.90625 354.308594 C 258.417969 355.746094 255.925781 357.1875 253.488281 358.597656 C 251.621094 359.628906 249.808594 360.6875 247.914062 361.582031 C 246.015625 362.425781 244.09375 363.238281 242.171875 364 C 243.472656 362.425781 246.097656 361.09375 248.914062 359.628906 C 249.292969 359.410156 249.671875 359.222656 250.050781 359.003906 C 247.046875 360.171875 244.039062 361.285156 240.953125 362.289062 C 241.304688 361.3125 242.28125 360.417969 244.636719 359.683594 C 244.472656 359.710938 244.3125 359.765625 244.148438 359.820312 C 243.066406 360.199219 241.984375 360.605469 240.847656 360.960938 C 237.625 362.046875 234.320312 363.160156 231.125 364.242188 C 227.878906 365.140625 224.710938 365.871094 221.894531 366.496094 C 224.898438 365.304688 228.257812 364.269531 231.804688 363.023438 C 227.472656 364.21875 223.246094 365.519531 219.050781 366.933594 C 214.855469 368.042969 210.710938 369.15625 206.652344 370.242188 C 204.59375 370.730469 202.5625 371.300781 200.503906 371.65625 C 198.449219 371.980469 196.390625 372.28125 194.359375 372.496094 C 196.039062 371.300781 198.882812 370.707031 202.023438 370.027344 C 205.136719 369.238281 208.546875 368.535156 211.335938 367.609375 C 206.976562 367.828125 200.667969 368.886719 193.871094 369.210938 C 190.488281 369.429688 186.996094 369.644531 183.636719 369.863281 C 180.28125 369.890625 177.03125 369.78125 174.136719 369.644531 C 178.492188 369.128906 183.421875 369.078125 188.753906 368.507812 C 194.0625 367.964844 199.773438 367.992188 205.542969 367.039062 C 200.992188 365.277344 194.386719 364.460938 187.835938 363.972656 C 186.210938 363.835938 184.558594 363.703125 182.960938 363.566406 C 181.363281 363.292969 179.820312 363.050781 178.332031 362.804688 C 175.351562 362.261719 172.699219 361.609375 170.617188 360.714844 C 171.753906 361.203125 172.105469 360.417969 171.699219 359.386719 C 168.285156 359.519531 162.574219 358.164062 158.917969 358.027344 C 161.03125 357.023438 166.878906 358.378906 171.402344 358.84375 C 170.859375 357.972656 169.855469 357.050781 168.285156 356.5625 C 168.015625 356.453125 167.773438 356.371094 167.527344 356.289062 C 167.878906 356.261719 168.179688 356.128906 168.339844 355.882812 C 167.933594 356.480469 162.765625 351.8125 167.394531 352.488281 C 161.761719 351.1875 156.5625 349.558594 151.691406 347.875 C 146.898438 345.945312 142.457031 343.722656 138.179688 341.550781 C 142.972656 342.582031 150.660156 346.625 158.566406 348.28125 C 166.363281 350.398438 174.027344 350.398438 176.898438 346.542969 C 174.109375 344.101562 171.265625 341.875 167.394531 339.894531 C 163.550781 337.695312 158.539062 336.226562 151.417969 334.871094 C 151.066406 333.566406 151.472656 332.046875 149.929688 331.042969 C 150.335938 330.011719 154.425781 333.078125 157.890625 332.835938 C 159.136719 332.617188 159.351562 331.53125 161.574219 332.128906 C 161.492188 331.777344 161.273438 331.449219 161.058594 331.152344 C 158.566406 330.878906 155.15625 330.472656 152.746094 330.390625 C 152.582031 329.195312 153.910156 329.359375 155.292969 329.578125 C 151.257812 328.109375 148.199219 327.566406 145.085938 326.753906 C 141.945312 326.046875 138.613281 325.53125 134.144531 324.148438 C 135.148438 323.035156 133.089844 322.328125 131.464844 321.570312 C 135.554688 322.492188 141.402344 323.769531 147.277344 325.859375 C 150.203125 326.917969 153.316406 327.59375 156.183594 328.574219 C 157.457031 328.953125 158.703125 329.386719 159.921875 329.820312 C 158.890625 328.953125 157.648438 328.164062 156.726562 327.242188 C 159.269531 326.671875 165.6875 333.050781 166.90625 327.621094 C 167.015625 325.722656 162.519531 325.667969 159.460938 325.015625 C 159.894531 323.605469 162.4375 324.09375 165.121094 324.636719 C 164.847656 322.601562 163.820312 321.132812 164.035156 320.101562 C 162.140625 319.832031 160.410156 319.34375 159.785156 318.988281 C 160.082031 318.5 160.949219 318.554688 161.085938 317.902344 C 147.738281 315 161.519531 316.816406 165.957031 318.773438 C 165.984375 318.773438 166.011719 318.746094 166.066406 318.746094 C 163.628906 316.464844 162.167969 315.460938 160.625 314.617188 C 159.082031 313.832031 157.484375 313.042969 155.046875 311.117188 C 155.941406 310.628906 157.539062 311.199219 159.21875 311.878906 C 160.921875 312.472656 162.683594 313.289062 163.765625 313.640625 C 164.902344 313.179688 166.011719 312.691406 167.070312 312.175781 C 165.578125 309.8125 159.109375 311.550781 158.40625 309.949219 C 158.703125 309.054688 158.972656 308.15625 157.890625 307.75 C 160.355469 307.179688 163.738281 310.738281 168.234375 311.035156 C 168.152344 310.113281 164.414062 309.136719 168.421875 309.734375 C 167.3125 308.238281 162.601562 308.402344 161.003906 307.125 C 163.25 306.882812 168.042969 307.046875 171.617188 307.5625 C 172.484375 305.90625 169.855469 305.960938 169.070312 305.144531 C 167.070312 304.683594 166.039062 305.171875 165.957031 306.636719 C 162.925781 304.140625 162.710938 301.914062 159.515625 300.691406 C 158.351562 298.546875 163.683594 300.449219 160.839844 298.980469 C 162.4375 297.894531 166.257812 298.546875 170.15625 299.417969 C 171.128906 299.632812 172.105469 299.824219 173.050781 300.015625 C 174 300.121094 174.921875 300.175781 175.785156 300.203125 C 177.058594 300.230469 178.140625 300.175781 178.953125 299.90625 C 175.679688 299.6875 172.429688 299.308594 169.152344 298.820312 C 168.800781 298.765625 168.421875 298.710938 168.070312 298.65625 C 167.070312 298.492188 166.09375 298.304688 165.09375 298.113281 C 164.089844 297.921875 163.089844 297.734375 162.085938 297.542969 C 161.734375 297.460938 161.410156 297.378906 161.058594 297.300781 C 153.722656 295.644531 146.65625 293.28125 139.941406 290.269531 C 139.777344 290.1875 139.613281 290.105469 139.453125 290.050781 C 137.964844 289.371094 136.472656 288.667969 135.039062 287.933594 C 134.550781 287.6875 134.09375 287.445312 133.632812 287.199219 C 132.523438 286.628906 131.410156 286.03125 130.328125 285.410156 C 129.570312 284.972656 128.839844 284.539062 128.082031 284.078125 C 127.324219 283.617188 126.539062 283.15625 125.78125 282.695312 C 125.507812 282.53125 125.238281 282.367188 124.996094 282.207031 C 124.804688 282.476562 125.5625 283.128906 127.457031 284.132812 C 125.292969 284.945312 122.097656 280.847656 120.769531 279.679688 C 117.875 282.855469 124.398438 283.808594 125.292969 285.953125 C 120.769531 285.136719 117.65625 280.710938 113.976562 279.707031 C 114.816406 280.738281 117.792969 283.238281 121.175781 285.597656 C 119.199219 284.785156 116.65625 284.269531 114.21875 283.453125 C 113.652344 283.265625 113.082031 283.046875 112.566406 282.773438 C 114.085938 284.214844 115.492188 285.652344 116.601562 286.550781 C 116.277344 286.574219 115.953125 286.496094 115.628906 286.441406 C 115.679688 286.550781 115.789062 286.628906 115.84375 286.738281 C 110.699219 286.601562 107.777344 279.761719 101.738281 278.023438 C 101.222656 279.84375 105.828125 279.84375 105.800781 282.3125 C 106.3125 281.527344 108.074219 282.910156 109.886719 284.785156 C 111.703125 286.683594 113.894531 288.773438 114.761719 289.996094 C 109.5625 287.144531 106.234375 284.132812 102.578125 281.335938 C 100.710938 279.980469 98.976562 278.40625 97.054688 276.695312 C 95.078125 275.039062 92.910156 273.21875 90.421875 271.128906 C 95.320312 276.261719 97.40625 281.664062 103.957031 287.6875 C 102.199219 282.9375 106.53125 289.019531 106.691406 290.839844 C 108.261719 290.242188 110.671875 291.761719 113.324219 293.851562 C 112.945312 294.367188 112 293.554688 111.269531 293.226562 C 119.769531 301.804688 132.847656 307.398438 148.226562 313.371094 C 145.515625 312.855469 142.835938 312.203125 140.183594 311.496094 C 137.558594 310.683594 135.066406 309.570312 132.574219 308.539062 C 131.738281 308.210938 130.953125 307.832031 130.167969 307.480469 C 131.84375 308.484375 133.226562 309.488281 133.359375 310.113281 C 134.878906 310.898438 135.285156 310.195312 136.554688 310.65625 C 137.097656 311.578125 134.929688 311.28125 132.386719 310.546875 C 129.839844 309.839844 127.132812 308.292969 126.402344 307.589844 C 126.808594 307.207031 127.648438 307.480469 127.917969 306.882812 C 121.503906 303.570312 122.097656 303.515625 124.617188 304.628906 C 122.613281 303.488281 120.691406 302.292969 118.769531 301.152344 C 116.601562 299.933594 114.679688 298.464844 112.757812 297.109375 C 111.621094 296.511719 110.484375 295.941406 109.375 295.289062 C 107.070312 293.824219 104.933594 292.113281 102.792969 290.457031 C 101.496094 289.507812 100.304688 288.503906 99.140625 287.445312 C 98.433594 287.011719 97.757812 286.574219 97.054688 286.195312 C 99.707031 288.9375 102.171875 291.488281 104.6875 293.796875 C 106.097656 294.558594 107.640625 295.644531 109.425781 296.890625 C 109.183594 297.054688 108.941406 297.109375 108.695312 297.164062 C 108.722656 297.191406 108.75 297.21875 108.804688 297.246094 C 110.808594 298.820312 112.757812 300.339844 114.707031 301.859375 C 116.765625 303.246094 118.902344 304.519531 121.070312 305.878906 C 129.734375 311.253906 140.074219 315.976562 155.238281 320.046875 C 151.878906 320.074219 148.332031 319.261719 144.679688 318.148438 C 141.023438 317.089844 137.207031 315.839844 133.605469 314.074219 C 126.1875 311.007812 119.28125 306.9375 112.621094 304.601562 C 112 303.789062 112.378906 303.679688 112.730469 303.296875 C 112.488281 303.136719 112.214844 303 111.972656 302.835938 C 108.695312 300.855469 105.367188 298.683594 102.332031 296.023438 C 100.761719 294.828125 99.246094 293.578125 97.757812 292.304688 C 98.570312 293.6875 99.085938 295.183594 99.734375 294.53125 C 101.738281 297.136719 97.324219 295.316406 95.972656 293.960938 C 95.945312 295.480469 97.515625 297.921875 94.265625 295.996094 C 93.535156 297.40625 96 299.363281 96.050781 300.964844 C 97 301.261719 97.867188 301.644531 99.140625 302.539062 L 102.902344 305.144531 C 105.878906 306.773438 109.210938 308.699219 112.515625 310.953125 C 115.058594 312.746094 117.902344 314.183594 120.417969 315.894531 C 123.019531 317.496094 125.375 319.289062 127.566406 320.644531 C 128.164062 321.269531 120.90625 318.066406 116.683594 316.765625 C 116.710938 316.464844 116.820312 316.273438 116.980469 316.167969 C 112.082031 314.429688 107.640625 311.226562 101.035156 306.339844 C 100.789062 306.175781 100.546875 306.066406 100.304688 305.90625 C 100.332031 305.878906 100.332031 305.851562 100.355469 305.851562 C 100.167969 305.714844 100.003906 305.605469 99.816406 305.441406 C 100.03125 305.550781 100.222656 305.632812 100.4375 305.742188 C 101.0625 305.144531 100.382812 304.410156 99.4375 303.625 C 93.695312 301.261719 89.609375 298.304688 85.222656 295.316406 C 83.136719 293.632812 81 291.898438 78.644531 290.023438 C 76.261719 288.152344 73.582031 286.195312 70.738281 283.726562 C 70.925781 279.410156 62.859375 276.234375 59.609375 269.878906 C 60.152344 270.804688 61.125 274.25 62.777344 277.425781 C 63.699219 279 64.753906 280.496094 65.917969 281.582031 C 65.59375 280.875 65.429688 280.195312 65.539062 279.519531 C 66.433594 280.902344 67.433594 282.070312 68.464844 283.101562 C 68.816406 283.183594 69.140625 283.238281 69.492188 283.210938 C 69.816406 283.835938 69.816406 284.132812 69.683594 284.296875 C 72.171875 286.628906 74.582031 288.476562 75.613281 291.300781 C 74.773438 289.671875 70.820312 287.117188 68.113281 284.429688 C 68.058594 284.429688 68.003906 284.457031 67.976562 284.457031 C 70.65625 286.792969 71.199219 287.117188 71.332031 289.535156 C 72.824219 290.730469 71.496094 287.988281 73.148438 289.507812 C 73.878906 291.460938 74.5 293.28125 77.640625 297.378906 C 78.425781 298.167969 79.15625 298.980469 79.96875 299.742188 C 80.511719 299.171875 79.808594 298.277344 78.941406 297.300781 C 83.652344 302.238281 88.878906 306.855469 94.507812 311.199219 C 94.210938 310.683594 94.15625 310.167969 94.5625 309.734375 C 96.730469 311.523438 99.140625 312.992188 101.496094 314.539062 C 100.925781 314.566406 98.894531 313.996094 97.082031 313.152344 C 109.398438 322.21875 123.75 329.875 140.238281 335.765625 C 140.210938 337.722656 134.039062 333.242188 133.957031 335.140625 C 137.421875 337.882812 146.816406 339.675781 152.828125 341.085938 C 154.480469 338.996094 148.277344 339.1875 145.894531 338.210938 C 143.136719 336.582031 155.941406 339.378906 156.699219 340.542969 C 154.613281 341.820312 150.335938 341.332031 145.515625 340.246094 C 140.78125 338.863281 135.527344 336.824219 131.113281 335.578125 C 131.925781 335.277344 132.710938 334.980469 132.953125 334.082031 C 131.789062 333.730469 130.625 333.296875 129.488281 332.808594 C 128.949219 334.191406 129.734375 334.328125 125.96875 334.925781 C 125.023438 334.734375 124.507812 334.191406 124.183594 333.59375 C 123.613281 333.378906 123.046875 333.160156 122.449219 332.890625 C 119.605469 331.640625 116.574219 329.523438 114.382812 328.84375 C 116.386719 328.898438 117.875 329.414062 119.335938 330.121094 C 119.226562 329.46875 119.554688 328.953125 117.386719 327.59375 C 115.003906 328.058594 111.214844 326.5625 107.019531 324.390625 C 102.792969 321.8125 98.246094 318.472656 94.320312 316.140625 C 94.859375 316.085938 95.375 316.003906 95.808594 315.785156 C 94.886719 315.109375 93.96875 314.429688 93.046875 313.75 C 92.695312 314.347656 92.425781 314.484375 89.554688 314.183594 C 86.550781 312.691406 89.472656 308.457031 86.035156 310.546875 C 83.542969 307.996094 84.628906 307.859375 84.4375 306.855469 C 80.835938 304.003906 77.480469 301.453125 74.800781 299.632812 C 75.179688 299.578125 75.367188 299.445312 75.449219 299.28125 C 72.851562 296.808594 69.871094 293.714844 67.082031 290.078125 C 65.429688 288.015625 63.753906 285.925781 62.074219 283.808594 C 62.046875 283.78125 62.019531 283.753906 62.019531 283.726562 C 61.859375 284.402344 61.640625 285.246094 60.234375 284.242188 C 59.800781 285 60.3125 285.789062 61.074219 286.523438 C 61.019531 286.414062 60.9375 286.304688 60.828125 286.167969 C 62.183594 286.386719 62.859375 287.335938 63.402344 288.476562 C 63.886719 288.9375 64.160156 289.316406 63.886719 289.617188 C 64.402344 290.917969 64.945312 292.304688 66.027344 293.308594 C 64.214844 293.554688 63.671875 291.488281 63.210938 289.941406 C 63.183594 289.941406 63.183594 289.96875 63.15625 289.96875 C 62.644531 289.34375 62.210938 288.910156 61.832031 288.53125 C 61.722656 288.640625 61.585938 288.746094 61.425781 288.9375 C 61.152344 288.53125 61.125 288.230469 61.179688 287.933594 C 59.746094 286.738281 59.175781 287.011719 58.175781 285.871094 C 57.445312 284.050781 57.796875 282.722656 59.230469 281.878906 C 57.066406 278.648438 55.628906 278.214844 54.007812 277.941406 C 58.769531 281.417969 52.867188 278.839844 57.121094 283.453125 C 56.363281 283.644531 55.199219 281.769531 54.519531 282.234375 C 55.386719 285.464844 60.503906 290.511719 62.289062 294.042969 C 58.417969 289.832031 53.300781 284.484375 49.675781 279.519531 C 45.910156 274.660156 42.609375 270.910156 41.445312 270.667969 C 39.820312 270.910156 39.167969 264.097656 41.957031 268.847656 C 41.363281 266.894531 35.242188 260.460938 33.078125 254.269531 C 32.914062 256.171875 33.457031 258.480469 31.183594 256.578125 C 32.886719 262.253906 33.105469 260.542969 35.921875 264.640625 C 35.136719 264.261719 34.324219 263.90625 33.539062 264.371094 C 36.191406 267.953125 36.328125 266.078125 36.707031 270.316406 C 28.527344 256.878906 21.273438 238.933594 17.105469 220.199219 C 14.75 211.078125 13.828125 201.496094 13.097656 192.347656 C 12.960938 187.785156 12.90625 183.28125 12.90625 178.964844 C 12.824219 174.621094 13.421875 170.496094 13.691406 166.53125 C 12.691406 165.144531 14.042969 163.515625 15.046875 161.5625 C 15.261719 159.824219 15.535156 158.140625 15.804688 156.433594 C 15.179688 156.132812 13.800781 158.167969 14.773438 154.316406 C 15.535156 153.011719 16.320312 150.949219 17.128906 148.449219 C 17.210938 148.042969 17.265625 147.636719 17.347656 147.230469 C 18.402344 142.777344 19.511719 138.433594 20.625 134.253906 C 21.652344 130.042969 23.304688 126.191406 24.601562 122.445312 C 23.925781 120.707031 26.039062 119.429688 27.582031 117.585938 C 28.148438 116.171875 28.71875 114.734375 29.3125 113.320312 C 28.90625 112.644531 26.796875 114.542969 28.800781 110.960938 C 29.992188 109.792969 31.425781 107.757812 33.023438 105.230469 C 33.347656 104.582031 33.644531 103.902344 34 103.277344 C 35.621094 100.128906 37.164062 97.089844 38.710938 94.292969 C 40.386719 91.605469 41.984375 89.132812 43.421875 86.960938 C 37.898438 94.238281 33.835938 101.566406 29.691406 108.679688 C 26.148438 116.089844 22.382812 123.339844 19.890625 131.566406 C 22.195312 120.21875 26.796875 109.710938 31.941406 99.964844 Z M 122.261719 331.804688 C 122.667969 331.992188 123.101562 332.183594 123.53125 332.375 C 123.289062 331.640625 123.046875 331.234375 122.261719 331.804688 Z M 85.058594 280.007812 C 84.816406 279.761719 84.574219 279.492188 84.300781 279.246094 C 84.167969 279.707031 84.195312 280.140625 84.273438 280.601562 C 84.382812 280.332031 84.734375 280.277344 85.058594 280.007812 Z M 239.382812 17.085938 C 240.980469 17.574219 242.496094 18.035156 243.851562 18.332031 C 242.496094 17.765625 241.199219 17.25 239.898438 16.730469 C 239.574219 16.839844 239.382812 16.949219 239.382812 17.085938 Z M 57.714844 267.191406 C 56.335938 265.753906 54.980469 263.933594 53.628906 262.226562 C 53.519531 262.304688 53.4375 262.332031 53.328125 262.46875 C 54.765625 265.320312 56.769531 268.632812 58.203125 267.871094 C 58.066406 267.679688 57.878906 267.4375 57.714844 267.191406 Z M 45.722656 247.78125 C 46.15625 248.324219 46.613281 248.785156 47.128906 249.113281 C 46.722656 248.242188 46.316406 247.292969 45.964844 246.070312 C 45.75 246.535156 45.695312 247.128906 45.722656 247.78125 Z M 46.5625 250.441406 C 46.613281 250.523438 46.640625 250.605469 46.667969 250.714844 C 47.265625 251.582031 47.671875 252.234375 47.996094 252.804688 C 48.105469 252.941406 48.183594 253.101562 48.320312 253.238281 C 50.324219 255.789062 52.84375 258.125 53.953125 259.375 C 52.058594 254.839844 49.890625 253.644531 48.050781 250.769531 C 47.671875 250.796875 47.019531 250.386719 46.5625 250.441406 Z M 47.859375 268.984375 C 49.375 271.375 50.621094 273.054688 50.296875 271.453125 C 48.535156 269.28125 47.777344 267.136719 47.128906 265.429688 C 46.425781 263.746094 45.722656 262.496094 44.097656 261.953125 C 44.910156 263.257812 46.453125 266.515625 47.859375 268.984375 Z M 48.183594 274.304688 L 53.167969 281.769531 L 54.25 280.984375 C 52.191406 278.867188 49.753906 272.078125 48.183594 274.304688 Z M 113.8125 327.214844 C 113.921875 327.132812 113.921875 327.050781 114.003906 326.972656 C 112.839844 326.535156 111.457031 325.914062 109.886719 325.070312 C 106.503906 323.304688 102.28125 320.835938 98.136719 317.660156 C 101.523438 320.945312 108.914062 324.582031 113.8125 327.214844 Z M 94.644531 290.269531 C 94.886719 290.1875 95.132812 290.214844 95.347656 290.242188 C 91.695312 287.0625 88.175781 283.941406 84.574219 281.5 C 85.195312 282.800781 86.550781 284.132812 88.175781 285.542969 C 89.472656 286.628906 90.882812 287.878906 92.398438 289.046875 C 93.914062 290.214844 95.429688 291.460938 96.703125 292.875 C 97.082031 292.167969 95.566406 291.191406 94.644531 290.269531 Z M 113 301.667969 C 112.488281 301.507812 111.835938 301.179688 111.078125 300.773438 C 111.703125 301.207031 112.351562 301.640625 113 302.078125 C 113 301.941406 113.027344 301.832031 113 301.667969 Z M 110.78125 282.695312 C 109.96875 281.796875 109.128906 280.902344 108.207031 280.035156 C 108.453125 281.09375 109.507812 281.878906 110.78125 282.695312 Z M 108.316406 279.328125 C 108.289062 279.273438 108.234375 279.246094 108.207031 279.191406 C 108.207031 279.21875 108.207031 279.246094 108.207031 279.273438 C 108.234375 279.273438 108.289062 279.300781 108.316406 279.328125 Z M 356.128906 135.582031 C 355.046875 132.136719 353.960938 129.394531 353.855469 129.691406 C 353.855469 129.71875 353.855469 129.746094 353.855469 129.773438 C 354.800781 132.269531 355.53125 134.199219 356.128906 135.582031 Z M 339.476562 95.050781 C 339.179688 94.183594 338.125 92.335938 336.472656 90.003906 C 337.878906 92.445312 338.855469 94.101562 339.503906 95.105469 C 339.476562 95.078125 339.476562 95.078125 339.476562 95.050781 Z M 331.140625 77.460938 C 331.273438 77.652344 331.355469 77.839844 331.492188 78.03125 C 332.355469 79.226562 333.195312 80.472656 334.035156 81.667969 C 333.089844 80.175781 332.113281 78.710938 331.140625 77.460938 Z M 177.679688 6.496094 C 178.25 7.3125 180.335938 7.746094 183.339844 7.964844 C 185.886719 8.074219 189.105469 8.234375 192.679688 8.425781 C 193.628906 8.398438 194.496094 8.316406 195.171875 8.152344 C 194.820312 8.289062 194.628906 8.425781 194.441406 8.535156 C 195.929688 8.617188 197.445312 8.722656 198.988281 8.832031 C 198.664062 7.855469 204.648438 8.5625 212.6875 9.917969 C 214.476562 10.269531 216.371094 10.734375 218.320312 11.195312 C 221.703125 11.765625 224.65625 12.578125 227.066406 13.449219 C 227.742188 13.609375 228.417969 13.800781 229.097656 13.964844 C 229.394531 14.042969 229.691406 14.125 229.988281 14.234375 C 228.5 12.605469 234.671875 15.457031 238.84375 16.324219 C 236.839844 15.539062 234.863281 14.75 232.96875 14.042969 C 229.5 12.796875 226.117188 11.953125 222.867188 11.03125 C 219.726562 10.21875 216.667969 9.375 213.691406 8.777344 C 212.878906 8.667969 212.121094 8.5625 211.28125 8.453125 C 211.28125 8.425781 211.308594 8.425781 211.335938 8.398438 C 208.953125 8.019531 206.597656 7.636719 204.242188 7.339844 C 201.210938 6.988281 198.203125 6.523438 195.117188 6.390625 C 192.03125 6.308594 188.917969 6.253906 185.667969 6.28125 C 183.097656 6.199219 180.417969 6.308594 177.679688 6.496094 Z M 26.28125 102.515625 C 27.335938 99.75 31.480469 94.78125 30.503906 93.503906 C 29.367188 95.1875 28.394531 95.050781 27.257812 96.574219 C 29.152344 96.925781 25.253906 101.539062 26.28125 102.515625 Z M 132.546875 331.9375 C 134.578125 332.347656 136.878906 332.347656 137.449219 332.183594 C 134.769531 331.3125 132.0625 330.527344 129.515625 329.332031 C 128.894531 330.554688 130.519531 331.53125 132.546875 331.9375 Z M 168.585938 343.746094 C 165.199219 344.046875 162.738281 343.558594 160.515625 343.070312 C 158.296875 342.5 156.320312 342.066406 153.667969 342.714844 C 155.941406 342.796875 159.40625 344.046875 162.492188 344.507812 C 165.578125 344.996094 168.207031 345.132812 168.585938 343.746094 Z M 132.441406 295.941406 C 137.367188 297.246094 141.292969 302.375 144.757812 301.097656 C 141.589844 299.742188 135.933594 295.617188 132.441406 295.941406 Z M 153.855469 304.003906 C 151.390625 303.8125 146.4375 300.285156 146.140625 302.945312 C 149.390625 302.265625 152.53125 306.039062 153.855469 304.003906 Z M 80.703125 340.652344 C 83.894531 342.6875 87.496094 345.566406 91.179688 348.144531 C 94.859375 350.671875 98.8125 352.570312 102.144531 353.277344 C 98.652344 351.242188 94.238281 348.714844 90.503906 345.945312 C 86.65625 343.285156 83.136719 341.085938 80.703125 340.652344 Z M 15.425781 253.726562 C 16.128906 253.265625 16.644531 252.777344 15.640625 250.578125 L 13.800781 251.285156 C 14.882812 254.703125 16.371094 257.800781 17.753906 257.445312 C 16.996094 255.601562 16.210938 254.652344 15.425781 253.726562 Z M 115.382812 345.023438 C 119.445312 346.273438 125.863281 349.882812 128.867188 349.828125 C 133.441406 351.59375 137.691406 352.871094 139.316406 352.246094 C 136.367188 351.320312 132.007812 349.691406 127.703125 348.144531 C 123.425781 346.570312 119.335938 344.617188 116.464844 343.9375 C 118.011719 344.644531 119.960938 345.675781 122.097656 346.761719 C 122.800781 347.140625 123.558594 347.496094 124.292969 347.875 C 120.796875 346.355469 117.199219 344.699219 115.382812 345.023438 Z M 90.53125 305.007812 C 88.554688 303.027344 86.847656 301.667969 85.628906 300.746094 C 84.4375 299.769531 83.652344 299.363281 83.410156 299.445312 C 82.949219 299.550781 84.679688 301.859375 90.53125 305.007812 Z M 72.445312 301.234375 C 77.777344 305.605469 84.546875 311.359375 91.695312 316.683594 C 91.667969 316.273438 91.613281 315.894531 90.933594 315.40625 C 94.101562 315.109375 94.808594 319.371094 97.8125 320.972656 C 97.785156 320.972656 97.757812 320.972656 97.730469 321 C 100.464844 322.84375 103.199219 324.609375 105.90625 326.101562 C 103.742188 325.640625 100.738281 323.847656 97.621094 321.730469 C 97.296875 321.515625 97 321.296875 96.675781 321.078125 C 96.214844 320.972656 95.78125 320.644531 95.429688 320.238281 C 93.019531 318.554688 90.691406 316.816406 88.714844 315.378906 L 80.296875 308.648438 C 77.585938 306.285156 75.042969 303.734375 72.445312 301.234375 Z M 92.585938 317.359375 C 93.15625 317.769531 93.722656 318.175781 94.292969 318.582031 C 93.671875 317.550781 93.15625 316.761719 92.585938 317.359375 Z M 8.46875 172.203125 C 8.519531 169.542969 8.738281 168.347656 9.144531 168.402344 C 8.847656 170.25 8.574219 172.203125 8.277344 174.242188 C 8.089844 174.023438 7.953125 173.75 7.707031 173.5625 C 7.519531 178.421875 7.03125 183.824219 7.113281 189.523438 C 7.058594 195.226562 6.871094 201.253906 7.464844 207.171875 C 7.898438 213.117188 8.386719 219.0625 9.683594 224.464844 C 10.875 229.890625 11.988281 235.023438 13.910156 239.148438 C 13.230469 234.941406 12.5 230.488281 11.796875 225.984375 C 12.445312 229.132812 13.179688 232.445312 14.125 235.835938 C 15.558594 241.375 16.914062 247.210938 19.027344 252.804688 C 20.976562 258.425781 23.007812 264.042969 25.632812 268.929688 C 28.175781 273.871094 30.585938 278.511719 33.511719 282.015625 C 26.6875 266.8125 18.296875 248.707031 15.695312 233.421875 C 16.128906 234.398438 16.480469 236.054688 17.128906 235.890625 C 15.453125 233.828125 14.585938 230.300781 14.042969 227.070312 C 13.503906 224.109375 12.824219 221.53125 11.039062 220.554688 C 10.902344 219.550781 10.769531 218.542969 10.632812 217.539062 C 10.742188 217.949219 10.875 218.355469 10.984375 218.734375 C 10.039062 214.746094 10.253906 213.984375 11.769531 215.777344 C 10.550781 211.976562 10.089844 207.441406 9.578125 202.636719 C 9.332031 200.246094 9.144531 197.777344 8.980469 195.28125 C 8.953125 194.65625 8.953125 194.003906 8.953125 193.378906 C 8.980469 191.398438 9.089844 189.441406 9.253906 187.542969 C 9.414062 188.601562 9.332031 190.285156 9.984375 190.3125 C 8.898438 187.867188 8.953125 184.230469 9.277344 180.972656 C 9.386719 179.507812 9.441406 178.121094 9.332031 176.929688 C 9.386719 175.816406 9.414062 174.621094 9.523438 173.5625 C 9.660156 172.070312 9.765625 170.628906 9.875 169.21875 C 9.929688 169.300781 9.957031 169.382812 10.011719 169.488281 C 9.984375 168.703125 10.011719 167.859375 10.039062 167.046875 C 10.0625 166.449219 10.089844 165.878906 10.144531 165.308594 C 10.363281 162.429688 10.824219 159.390625 11.308594 156.242188 C 11.6875 153.851562 12.148438 151.4375 12.636719 148.992188 C 13.125 146.550781 13.910156 144.160156 14.558594 141.773438 C 14.558594 141.746094 14.585938 141.71875 14.585938 141.691406 C 14.695312 142.234375 14.910156 142.804688 15.179688 143.074219 C 16.425781 137.699219 18.296875 132.460938 19.972656 127.167969 C 19.703125 123.855469 16.425781 136.695312 15.179688 140.226562 C 15.101562 140.226562 15.074219 140.332031 14.992188 140.359375 C 16.238281 136.097656 17.375 131.890625 18.753906 128.171875 C 20.269531 124.019531 21.597656 120.246094 22.464844 117.09375 C 20.976562 120.300781 19.160156 124.371094 17.238281 128.90625 C 15.480469 133.492188 13.9375 138.652344 12.394531 143.808594 C 11.582031 146.386719 10.984375 148.992188 10.550781 151.625 C 10.0625 154.234375 9.632812 156.785156 9.277344 159.226562 C 8.953125 161.671875 8.574219 164.007812 8.492188 166.179688 C 8.359375 168.402344 8.386719 170.414062 8.46875 172.203125 Z M 98 334.4375 C 95.375 332.78125 91.585938 330.066406 87.847656 327.460938 C 84.113281 324.828125 80.675781 321.894531 78.074219 320.484375 C 79.375 321.570312 81 323.0625 82.785156 324.664062 C 84.546875 326.320312 86.496094 327.976562 88.527344 329.386719 C 92.480469 332.292969 96.269531 334.625 98 334.4375 Z M 4.269531 158.820312 C 4.027344 160.828125 3.835938 162.894531 3.757812 164.875 C 3.78125 166.882812 3.863281 168.785156 3.945312 170.414062 C 3.890625 168.375 4 166.285156 4.324219 164.277344 C 4.703125 162.269531 5.164062 160.285156 5.597656 158.414062 C 6.464844 154.695312 7.25 151.4375 7.003906 149.101562 C 5.625 151.109375 4.757812 154.804688 4.269531 158.820312 Z M 167.472656 356.234375 C 162.816406 354.605469 165.742188 356.425781 167.472656 356.234375 Z M 53.273438 63.886719 C 55.007812 61.472656 60.289062 57.777344 59.691406 56.285156 C 58.148438 57.617188 57.253906 57.207031 55.765625 58.402344 C 57.472656 59.246094 52.515625 62.691406 53.273438 63.886719 Z M 148.765625 299.714844 C 145.949219 299.089844 141.589844 296.023438 139.804688 296.972656 C 142.648438 298.953125 145.464844 300.066406 148.765625 299.714844 Z M 363.4375 135.9375 C 363.898438 137.671875 364.359375 139.355469 364.765625 140.929688 C 365.6875 144.078125 366.632812 146.792969 367.796875 148.613281 C 365.984375 142.425781 364.496094 135.039062 361.789062 130.722656 C 362.355469 132.488281 362.898438 134.226562 363.4375 135.9375 Z M 221.703125 368.558594 C 220.484375 370.8125 219.429688 373.066406 216.832031 374.804688 C 221.460938 374.667969 222.054688 373.175781 225.496094 372.46875 C 225.222656 370.40625 224.085938 369.023438 221.703125 368.558594 Z M 369.015625 187.707031 C 369.097656 183.199219 371.371094 176.167969 369.152344 171.851562 C 366.769531 172.910156 366.878906 185.179688 369.015625 187.707031 Z M 139.96875 348.878906 C 141.78125 350.96875 151.230469 354.742188 155.101562 353.820312 C 150.960938 351.972656 142.808594 348.144531 139.96875 348.878906 Z M 348.84375 269.636719 C 347.4375 272.566406 346.109375 275.335938 344.839844 278.023438 C 343.457031 280.65625 342.15625 283.289062 340.914062 285.925781 C 342.617188 283.15625 344.433594 280.167969 346.273438 277.101562 C 347.953125 273.953125 349.65625 270.722656 351.363281 267.546875 C 354.828125 261.246094 357.050781 254.757812 358.242188 249.574219 C 356.535156 253.457031 354.964844 257.039062 353.476562 260.378906 C 351.824219 263.691406 350.28125 266.757812 348.84375 269.636719 Z M 372.726562 179.019531 C 373.078125 182.847656 373.5625 186.621094 373.78125 190.3125 C 373.945312 194.03125 374.105469 197.613281 374.269531 201.117188 C 374.402344 197.015625 374.511719 192.890625 374.484375 188.847656 C 374.269531 184.800781 373.945312 180.808594 373.5625 176.929688 C 373.347656 175 373.132812 173.101562 372.914062 171.226562 C 372.617188 169.355469 372.210938 167.5625 371.832031 165.769531 C 371.046875 162.242188 370.152344 158.875 369.179688 155.78125 C 370.640625 163.542969 372.128906 171.335938 372.726562 179.019531 Z M 372.726562 179.019531 "/>
</clipPath>
<linearGradient id="linear0" gradientUnits="userSpaceOnUse" x1="-10.176201" y1="68.556999" x2="146.460137" y2="68.556999" gradientTransform="matrix(-2.676095,-0.411849,0.410743,-2.683301,342.709526,400.310508)">
<stop offset="0" style="stop-color:rgb(43.499756%,83.898926%,100%);stop-opacity:1;"/>
<stop offset="0.0625" style="stop-color:rgb(43.501282%,83.898926%,99.998474%);stop-opacity:1;"/>
<stop offset="0.0703125" style="stop-color:rgb(43.641663%,83.944702%,99.913025%);stop-opacity:1;"/>
<stop offset="0.078125" style="stop-color:rgb(43.920898%,84.036255%,99.746704%);stop-opacity:1;"/>
<stop offset="0.0859375" style="stop-color:rgb(44.200134%,84.126282%,99.578857%);stop-opacity:1;"/>
<stop offset="0.09375" style="stop-color:rgb(44.47937%,84.217834%,99.411011%);stop-opacity:1;"/>
<stop offset="0.101562" style="stop-color:rgb(44.760132%,84.307861%,99.24469%);stop-opacity:1;"/>
<stop offset="0.109375" style="stop-color:rgb(45.039368%,84.399414%,99.076843%);stop-opacity:1;"/>
<stop offset="0.117187" style="stop-color:rgb(45.318604%,84.489441%,98.908997%);stop-opacity:1;"/>
<stop offset="0.125" style="stop-color:rgb(45.597839%,84.580994%,98.742676%);stop-opacity:1;"/>
<stop offset="0.132812" style="stop-color:rgb(45.877075%,84.671021%,98.574829%);stop-opacity:1;"/>
<stop offset="0.140625" style="stop-color:rgb(46.157837%,84.762573%,98.406982%);stop-opacity:1;"/>
<stop offset="0.148438" style="stop-color:rgb(46.437073%,84.8526%,98.239136%);stop-opacity:1;"/>
<stop offset="0.15625" style="stop-color:rgb(46.716309%,84.944153%,98.072815%);stop-opacity:1;"/>
<stop offset="0.164062" style="stop-color:rgb(46.995544%,85.03418%,97.904968%);stop-opacity:1;"/>
<stop offset="0.171875" style="stop-color:rgb(47.27478%,85.125732%,97.737122%);stop-opacity:1;"/>
<stop offset="0.179688" style="stop-color:rgb(47.555542%,85.215759%,97.570801%);stop-opacity:1;"/>
<stop offset="0.1875" style="stop-color:rgb(47.834778%,85.307312%,97.402954%);stop-opacity:1;"/>
<stop offset="0.195312" style="stop-color:rgb(48.114014%,85.398865%,97.235107%);stop-opacity:1;"/>
<stop offset="0.203125" style="stop-color:rgb(48.39325%,85.488892%,97.068787%);stop-opacity:1;"/>
<stop offset="0.210938" style="stop-color:rgb(48.672485%,85.580444%,96.90094%);stop-opacity:1;"/>
<stop offset="0.21875" style="stop-color:rgb(48.953247%,85.670471%,96.733093%);stop-opacity:1;"/>
<stop offset="0.226562" style="stop-color:rgb(49.232483%,85.762024%,96.566772%);stop-opacity:1;"/>
<stop offset="0.234375" style="stop-color:rgb(49.511719%,85.852051%,96.398926%);stop-opacity:1;"/>
<stop offset="0.242188" style="stop-color:rgb(49.790955%,85.943604%,96.231079%);stop-opacity:1;"/>
<stop offset="0.25" style="stop-color:rgb(50.07019%,86.03363%,96.064758%);stop-opacity:1;"/>
<stop offset="0.257812" style="stop-color:rgb(50.350952%,86.125183%,95.896912%);stop-opacity:1;"/>
<stop offset="0.265625" style="stop-color:rgb(50.630188%,86.21521%,95.729065%);stop-opacity:1;"/>
<stop offset="0.273438" style="stop-color:rgb(50.909424%,86.306763%,95.561218%);stop-opacity:1;"/>
<stop offset="0.28125" style="stop-color:rgb(51.18866%,86.39679%,95.394897%);stop-opacity:1;"/>
<stop offset="0.289063" style="stop-color:rgb(51.467896%,86.488342%,95.227051%);stop-opacity:1;"/>
<stop offset="0.296875" style="stop-color:rgb(51.748657%,86.578369%,95.059204%);stop-opacity:1;"/>
<stop offset="0.304688" style="stop-color:rgb(52.027893%,86.669922%,94.892883%);stop-opacity:1;"/>
<stop offset="0.3125" style="stop-color:rgb(52.307129%,86.759949%,94.725037%);stop-opacity:1;"/>
<stop offset="0.320312" style="stop-color:rgb(52.586365%,86.851501%,94.55719%);stop-opacity:1;"/>
<stop offset="0.328125" style="stop-color:rgb(52.865601%,86.941528%,94.390869%);stop-opacity:1;"/>
<stop offset="0.335937" style="stop-color:rgb(53.146362%,87.033081%,94.223022%);stop-opacity:1;"/>
<stop offset="0.34375" style="stop-color:rgb(53.425598%,87.123108%,94.055176%);stop-opacity:1;"/>
<stop offset="0.351563" style="stop-color:rgb(53.704834%,87.214661%,93.888855%);stop-opacity:1;"/>
<stop offset="0.359375" style="stop-color:rgb(53.98407%,87.304688%,93.721008%);stop-opacity:1;"/>
<stop offset="0.367188" style="stop-color:rgb(54.263306%,87.39624%,93.553162%);stop-opacity:1;"/>
<stop offset="0.375" style="stop-color:rgb(54.544067%,87.486267%,93.386841%);stop-opacity:1;"/>
<stop offset="0.382812" style="stop-color:rgb(54.823303%,87.57782%,93.218994%);stop-opacity:1;"/>
<stop offset="0.390625" style="stop-color:rgb(55.102539%,87.667847%,93.051147%);stop-opacity:1;"/>
<stop offset="0.398437" style="stop-color:rgb(55.381775%,87.759399%,92.883301%);stop-opacity:1;"/>
<stop offset="0.40625" style="stop-color:rgb(55.662537%,87.849426%,92.71698%);stop-opacity:1;"/>
<stop offset="0.414063" style="stop-color:rgb(55.941772%,87.940979%,92.549133%);stop-opacity:1;"/>
<stop offset="0.421875" style="stop-color:rgb(56.221008%,88.031006%,92.381287%);stop-opacity:1;"/>
<stop offset="0.429688" style="stop-color:rgb(56.500244%,88.122559%,92.214966%);stop-opacity:1;"/>
<stop offset="0.4375" style="stop-color:rgb(56.77948%,88.212585%,92.047119%);stop-opacity:1;"/>
<stop offset="0.445312" style="stop-color:rgb(57.060242%,88.304138%,91.879272%);stop-opacity:1;"/>
<stop offset="0.453125" style="stop-color:rgb(57.339478%,88.394165%,91.712952%);stop-opacity:1;"/>
<stop offset="0.460937" style="stop-color:rgb(57.618713%,88.485718%,91.545105%);stop-opacity:1;"/>
<stop offset="0.46875" style="stop-color:rgb(57.897949%,88.575745%,91.377258%);stop-opacity:1;"/>
<stop offset="0.476563" style="stop-color:rgb(58.177185%,88.667297%,91.210938%);stop-opacity:1;"/>
<stop offset="0.484375" style="stop-color:rgb(58.457947%,88.757324%,91.043091%);stop-opacity:1;"/>
<stop offset="0.492188" style="stop-color:rgb(58.737183%,88.848877%,90.875244%);stop-opacity:1;"/>
<stop offset="0.5" style="stop-color:rgb(59.016418%,88.938904%,90.707397%);stop-opacity:1;"/>
<stop offset="0.507812" style="stop-color:rgb(59.295654%,89.030457%,90.541077%);stop-opacity:1;"/>
<stop offset="0.515625" style="stop-color:rgb(59.57489%,89.122009%,90.37323%);stop-opacity:1;"/>
<stop offset="0.523438" style="stop-color:rgb(59.855652%,89.212036%,90.205383%);stop-opacity:1;"/>
<stop offset="0.53125" style="stop-color:rgb(60.134888%,89.303589%,90.039062%);stop-opacity:1;"/>
<stop offset="0.539062" style="stop-color:rgb(60.414124%,89.393616%,89.871216%);stop-opacity:1;"/>
<stop offset="0.546875" style="stop-color:rgb(60.693359%,89.485168%,89.703369%);stop-opacity:1;"/>
<stop offset="0.554688" style="stop-color:rgb(60.972595%,89.575195%,89.537048%);stop-opacity:1;"/>
<stop offset="0.5625" style="stop-color:rgb(61.253357%,89.666748%,89.369202%);stop-opacity:1;"/>
<stop offset="0.570312" style="stop-color:rgb(61.532593%,89.756775%,89.201355%);stop-opacity:1;"/>
<stop offset="0.578125" style="stop-color:rgb(61.811829%,89.848328%,89.035034%);stop-opacity:1;"/>
<stop offset="0.585938" style="stop-color:rgb(62.091064%,89.938354%,88.867188%);stop-opacity:1;"/>
<stop offset="0.59375" style="stop-color:rgb(62.3703%,90.029907%,88.699341%);stop-opacity:1;"/>
<stop offset="0.601562" style="stop-color:rgb(62.651062%,90.119934%,88.53302%);stop-opacity:1;"/>
<stop offset="0.609375" style="stop-color:rgb(62.930298%,90.211487%,88.365173%);stop-opacity:1;"/>
<stop offset="0.617188" style="stop-color:rgb(63.209534%,90.301514%,88.197327%);stop-opacity:1;"/>
<stop offset="0.625" style="stop-color:rgb(63.48877%,90.393066%,88.02948%);stop-opacity:1;"/>
<stop offset="0.632812" style="stop-color:rgb(63.768005%,90.483093%,87.863159%);stop-opacity:1;"/>
<stop offset="0.640625" style="stop-color:rgb(64.048767%,90.574646%,87.695312%);stop-opacity:1;"/>
<stop offset="0.648438" style="stop-color:rgb(64.328003%,90.664673%,87.527466%);stop-opacity:1;"/>
<stop offset="0.65625" style="stop-color:rgb(64.607239%,90.756226%,87.361145%);stop-opacity:1;"/>
<stop offset="0.664062" style="stop-color:rgb(64.886475%,90.846252%,87.193298%);stop-opacity:1;"/>
<stop offset="0.671875" style="stop-color:rgb(65.16571%,90.937805%,87.025452%);stop-opacity:1;"/>
<stop offset="0.679688" style="stop-color:rgb(65.446472%,91.027832%,86.859131%);stop-opacity:1;"/>
<stop offset="0.6875" style="stop-color:rgb(65.725708%,91.119385%,86.691284%);stop-opacity:1;"/>
<stop offset="0.695312" style="stop-color:rgb(66.004944%,91.209412%,86.523438%);stop-opacity:1;"/>
<stop offset="0.703125" style="stop-color:rgb(66.28418%,91.300964%,86.357117%);stop-opacity:1;"/>
<stop offset="0.710938" style="stop-color:rgb(66.563416%,91.390991%,86.18927%);stop-opacity:1;"/>
<stop offset="0.71875" style="stop-color:rgb(66.844177%,91.482544%,86.021423%);stop-opacity:1;"/>
<stop offset="0.726562" style="stop-color:rgb(67.123413%,91.572571%,85.853577%);stop-opacity:1;"/>
<stop offset="0.734375" style="stop-color:rgb(67.402649%,91.664124%,85.687256%);stop-opacity:1;"/>
<stop offset="0.742188" style="stop-color:rgb(67.681885%,91.75415%,85.519409%);stop-opacity:1;"/>
<stop offset="0.75" style="stop-color:rgb(67.961121%,91.845703%,85.351562%);stop-opacity:1;"/>
<stop offset="0.757812" style="stop-color:rgb(68.241882%,91.93573%,85.185242%);stop-opacity:1;"/>
<stop offset="0.765625" style="stop-color:rgb(68.521118%,92.027283%,85.017395%);stop-opacity:1;"/>
<stop offset="0.773438" style="stop-color:rgb(68.800354%,92.11731%,84.849548%);stop-opacity:1;"/>
<stop offset="0.78125" style="stop-color:rgb(69.07959%,92.208862%,84.683228%);stop-opacity:1;"/>
<stop offset="0.789062" style="stop-color:rgb(69.360352%,92.298889%,84.515381%);stop-opacity:1;"/>
<stop offset="0.796875" style="stop-color:rgb(69.639587%,92.390442%,84.347534%);stop-opacity:1;"/>
<stop offset="0.804688" style="stop-color:rgb(69.918823%,92.480469%,84.181213%);stop-opacity:1;"/>
<stop offset="0.8125" style="stop-color:rgb(70.198059%,92.572021%,84.013367%);stop-opacity:1;"/>
<stop offset="0.820312" style="stop-color:rgb(70.477295%,92.662048%,83.84552%);stop-opacity:1;"/>
<stop offset="0.828125" style="stop-color:rgb(70.758057%,92.753601%,83.679199%);stop-opacity:1;"/>
<stop offset="0.835938" style="stop-color:rgb(71.037292%,92.845154%,83.511353%);stop-opacity:1;"/>
<stop offset="0.84375" style="stop-color:rgb(71.316528%,92.935181%,83.343506%);stop-opacity:1;"/>
<stop offset="0.851562" style="stop-color:rgb(71.595764%,93.026733%,83.175659%);stop-opacity:1;"/>
<stop offset="0.859375" style="stop-color:rgb(71.875%,93.11676%,83.009338%);stop-opacity:1;"/>
<stop offset="0.867188" style="stop-color:rgb(72.155762%,93.208313%,82.841492%);stop-opacity:1;"/>
<stop offset="0.875" style="stop-color:rgb(72.434998%,93.29834%,82.673645%);stop-opacity:1;"/>
<stop offset="0.882812" style="stop-color:rgb(72.714233%,93.389893%,82.507324%);stop-opacity:1;"/>
<stop offset="0.890625" style="stop-color:rgb(72.993469%,93.479919%,82.339478%);stop-opacity:1;"/>
<stop offset="0.898437" style="stop-color:rgb(73.272705%,93.571472%,82.171631%);stop-opacity:1;"/>
<stop offset="0.90625" style="stop-color:rgb(73.553467%,93.661499%,82.00531%);stop-opacity:1;"/>
<stop offset="0.914062" style="stop-color:rgb(73.832703%,93.753052%,81.837463%);stop-opacity:1;"/>
<stop offset="0.921875" style="stop-color:rgb(74.111938%,93.843079%,81.669617%);stop-opacity:1;"/>
<stop offset="0.929688" style="stop-color:rgb(74.391174%,93.934631%,81.503296%);stop-opacity:1;"/>
<stop offset="0.9375" style="stop-color:rgb(74.67041%,94.024658%,81.335449%);stop-opacity:1;"/>
<stop offset="1" style="stop-color:rgb(74.855042%,94.084167%,81.225586%);stop-opacity:1;"/>
</linearGradient>
</defs>
<g id="surface1">
<g clip-path="url(#clip1)" clip-rule="nonzero">
<g clip-path="url(#clip2)" clip-rule="nonzero">
<path style=" stroke:none;fill-rule:nonzero;fill:url(#linear0);" d="M 365.902344 430.882812 L 430.507812 8.824219 L 11.335938 -55.683594 L -53.269531 366.375 Z M 365.902344 430.882812 "/>
</g>
</g>
</g>
</svg>
