<svg xmlns="http://www.w3.org/2000/svg" enable-background="new 0 0 64 64" viewBox="0 0 64 64" width="288" height="288">
  <path fill="#3498db"
    d="M56.7,16.5c-2-1.2-4.5-1.2-6.5,0l-3.8,2.2C45.1,15.4,41.8,13,38,13H13c-5,0-9,4-9,9v20c0,5,4,9,9,9h25c3.8,0,7.1-2.4,8.4-5.7l3.8,2.2c1,0.6,2.2,0.9,3.3,0.9c1.1,0,2.2-0.3,3.2-0.9c2-1.2,3.3-3.3,3.3-5.6V22.1C60,19.8,58.8,17.6,56.7,16.5z M41,42c0,1.7-1.3,3-3,3H13c-1.7,0-3-1.3-3-3V22c0-1.7,1.3-3,3-3h25c1.7,0,3,1.3,3,3V42z M54,41.9c0,0.2-0.1,0.3-0.3,0.4c-0.2,0.1-0.3,0.1-0.5,0L47,38.7V25.3l6.2-3.6c0.2-0.1,0.3-0.1,0.5,0c0.2,0.1,0.3,0.2,0.3,0.4V41.9z"
    class="color1b5dff svgShape"></path>
  <path fill="#3498db"
    d="M31.4,24.1c-0.2,0-0.4,0.1-0.6,0.2c-0.2,0.1-0.3,0.2-0.5,0.3c-0.2,0.1-0.3,0.2-0.4,0.4C29.3,25.4,29,26.2,29,27s0.3,1.6,0.9,2.1c0.1,0.1,0.3,0.3,0.4,0.4c0.2,0.1,0.3,0.2,0.5,0.3c0.2,0.1,0.4,0.1,0.6,0.2c0.2,0,0.4,0.1,0.6,0.1c0.8,0,1.6-0.3,2.1-0.9c0.6-0.6,0.9-1.3,0.9-2.1s-0.3-1.6-0.9-2.1C33.4,24.2,32.4,23.9,31.4,24.1z"
    class="color1b5dff svgShape"></path>
</svg>