<svg xmlns="http://www.w3.org/2000/svg" data-name="Layer 1" viewBox="0 0 64 64"><circle cx="32" cy="32" r="27" fill="#f26522"/><path fill="#2a292a" d="M48.75,53.16a26.94,26.94,0,0,1-33.5,0L16,50.5A9.12,9.12,0,0,1,24.79,44H39.21A9.12,9.12,0,0,1,48,50.5Z"/><path fill="#3c2415" d="M27.67 34.68a3.88 3.88 0 0 0-2.31.77 3.9 3.9 0 0 0-.93-.76 3.88 3.88 0 0 0 1.2-5.63A3.91 3.91 0 1 0 20 28.27a3.82 3.82 0 0 0-1.39 3.94 3.89 3.89 0 0 0 .28 7.5 3.88 3.88 0 0 0 5.83 1.47 3.91 3.91 0 1 0 2.91-6.51zM48.06 35.92a3.9 3.9 0 0 0-2.72-3.71A3.82 3.82 0 0 0 44 28.27a3.91 3.91 0 1 0-5.59.79 3.88 3.88 0 0 0 1.2 5.63 3.9 3.9 0 0 0-.93.76 3.91 3.91 0 1 0 .6 5.74 3.88 3.88 0 0 0 5.83-1.47A3.91 3.91 0 0 0 48.06 35.92z"/><path fill="#ffd2b4" d="M36,39.94v5.47a.94.94,0,0,1-.52.84l-3.06,1.53a.94.94,0,0,1-.84,0l-3.06-1.53a.94.94,0,0,1-.52-.84V39.94a.94.94,0,0,1,.94-.94h6.11A.94.94,0,0,1,36,39.94Z"/><path fill="#ffd2b4" d="M32,15.21C43,15.21,42.1,26,42.1,26c1.62-.17,2.9.49,2.9,2.86s-1,2.86-2.26,3a.28.28,0,0,0-.26.27c-.38,3.69-2.9,6.39-5.38,8.2a8.59,8.59,0,0,1-10.19,0c-2.48-1.81-5-4.52-5.38-8.2a.28.28,0,0,0-.26-.27c-1.27-.13-2.26-.63-2.26-3s1.22-3,2.84-2.86C21.84,26,20.94,15.21,32,15.21Z"/><path fill="#262234" d="M36,41v2a8.5,8.5,0,0,1-8,0V41a8.5,8.5,0,0,0,8,0Z" opacity=".1"/><circle cx="28.04" cy="28.15" r="1.7" fill="#3c2415"/><circle cx="35.96" cy="28.15" r="1.7" fill="#3c2415"/><path fill="#611c24" d="M35.87,32.53a1,1,0,0,1,1,1.25,5,5,0,0,1-9.68,0,1,1,0,0,1,1-1.25Z"/><path fill="#be1e2d" d="M34.42,36.91a5,5,0,0,1-4.84,0c.2-1.23,1.21-1.57,2.42-1.57S34.22,35.68,34.42,36.91Z"/><path fill="#fff" d="M34.87,32.53v.95a.37.37,0,0,1-.36.37h-5a.37.37,0,0,1-.36-.37v-.95Z"/><path fill="#3c2415" d="M43.5,22.2C43,15.34,36.87,13,32,13S21,15.34,20.5,22.2a11.32,11.32,0,0,0,.1,3.42A31.59,31.59,0,0,0,21,29.26c.18.78,1.07.75,1.19.05a23.59,23.59,0,0,1,2-7.34,3.28,3.28,0,0,0,3.36.7A3.34,3.34,0,0,0,32,23a3.34,3.34,0,0,0,4.54-.37A3.28,3.28,0,0,0,39.89,22a23.6,23.6,0,0,1,2,7.33c.11.7,1,.73,1.19-.05a30.79,30.79,0,0,0,.34-3.57A11.23,11.23,0,0,0,43.5,22.2Z"/><path fill="#d1d3d4" d="M36.69,47.24V58.59a27,27,0,0,1-9.38,0V47.24Z"/><path fill="#be1e2d" d="M33.49,50.86h-3a.5.5,0,0,1-.48-.37l-.72-2.62a.5.5,0,0,1,.48-.63h4.42a.5.5,0,0,1,.48.63L34,50.49A.5.5,0,0,1,33.49,50.86Z"/><path fill="#be1e2d" d="M34.32,58.9c-.77.07-1.54.1-2.32.1s-1.55,0-2.32-.1l1.65-9.09h1.34Z"/><polygon fill="#f1f2f2" points="32 47.24 28.34 51.28 26.18 44 28 42.74 32 47.24"/><polygon fill="#f1f2f2" points="32 47.24 35.66 51.28 37.82 44 36 42.74 32 47.24"/><path fill="#2a292a" d="M30.9 59a26.25 26.25 0 0 1-6.73-1.12l.08-13.36a.85.85 0 0 1 .13-.47 1 1 0 0 1 .69-.51l2.43-.42.2.91zM39.83 57.85A26.25 26.25 0 0 1 33.1 59l3.2-15 .2-.91 2.43.42a1 1 0 0 1 .69.51h0a.94.94 0 0 1 .12.47z"/><path fill="#f1f2f2" d="M38.83,41.16,32,44.33l-6.83-3.16a.65.65,0,0,0-.92.59V57L32,59l7.75-2V41.75A.65.65,0,0,0,38.83,41.16Z"/><path fill="#d1d3d4" d="M40.9,42,32,44.64,23.1,42a.65.65,0,0,0-.83.62V58L32,60l9.73-2V42.6A.65.65,0,0,0,40.9,42Z"/><path fill="#be1e2d" d="M42.57,43.09l-9.7,1.71a5,5,0,0,1-1.74,0l-9.7-1.71a.65.65,0,0,0-.76.64V58.2a1,1,0,0,0,.83,1l9.64,1.7a5,5,0,0,0,1.74,0l9.64-1.7a1,1,0,0,0,.83-1V43.72A.65.65,0,0,0,42.57,43.09Z"/><rect width="4.55" height="7.07" x="41.04" y="49.94" fill="#ffd2b4" rx="2.02" ry="2.02" transform="rotate(180 43.31 53.475)"/><rect width="4.55" height="7.07" x="18.42" y="49.94" fill="#ffd2b4" rx="2.02" ry="2.02"/><path fill="#a21b25" d="M32.75,44.82V60.89a4.72,4.72,0,0,1-1.5,0V44.82A5.39,5.39,0,0,0,32.75,44.82Z"/></svg>